 <svg version="1.0" xmlns="http://www.w3.org/2000/svg" width="700.000000pt" height="159.000000pt" viewBox="0 0 700.000000 159.000000" preserveAspectRatio="xMidYMid meet">
<metadata>
Created by potrace 1.12, written by Peter Selinger 2001-2015
</metadata>
<g transform="translate(0.000000,159.000000) scale(0.100000,-0.100000)" fill="#000000" stroke="none">
<path d="M1068 1523 c-16 -4 -18 -22 -18 -194 0 -132 3 -188 11 -184 6 4 8 13
5 21 -3 7 1 20 9 28 10 10 15 35 15 75 0 34 4 61 8 61 24 0 45 -30 46 -66 1
-32 4 -38 20 -36 23 4 35 -13 37 -53 1 -26 2 -24 11 13 9 41 7 47 -33 108 -31
48 -39 68 -31 76 8 8 15 8 26 -1 13 -11 15 -8 14 21 -1 76 -8 98 -36 112 -36
18 -63 24 -84 19z m66 -59 c17 -17 10 -40 -18 -63 -22 -18 -36 -5 -36 33 0 49
23 61 54 30z"></path>
<path d="M754 1512 c-35 -23 -45 -133 -23 -245 10 -48 15 -56 33 -54 17 2 22
-5 26 -32 3 -19 11 -36 19 -39 10 -3 12 2 8 19 -3 13 -2 31 3 39 7 10 10 11
10 3 0 -7 5 -13 10 -13 6 0 10 30 10 70 l0 70 -28 0 c-16 0 -31 -3 -35 -6 -11
-11 5 -33 20 -27 11 4 14 1 11 -13 -5 -28 -41 -24 -49 6 -4 14 -7 58 -8 98 -1
65 1 73 17 70 9 -2 19 -14 20 -28 2 -14 9 -31 15 -38 9 -11 12 -11 18 5 4 10
8 33 8 51 1 51 -49 89 -85 64z"></path>
<path d="M3005 1500 c-119 -8 -276 -30 -423 -61 -120 -25 -203 -24 -332 3
-113 24 -119 24 -471 29 l-236 4 -42 -29 c-54 -38 -122 -128 -167 -225 -57
-120 -64 -127 -157 -155 -45 -13 -117 -28 -160 -31 -49 -5 -85 -14 -100 -25
-60 -47 -142 -62 -217 -41 -15 4 -43 2 -68 -7 -44 -14 -44 -14 -72 16 -17 19
-42 33 -65 38 -56 10 -146 -2 -165 -23 -45 -48 -92 -270 -73 -342 6 -25 4 -47
-8 -85 -15 -44 -22 -51 -46 -54 -36 -4 -95 -60 -88 -83 3 -9 -1 -22 -10 -29
-21 -17 -19 -33 5 -48 12 -7 18 -18 14 -24 -4 -6 1 -17 11 -24 12 -9 19 -30
21 -71 6 -74 36 -140 72 -155 18 -8 100 -11 257 -9 217 3 231 4 257 24 61 47
107 99 119 135 6 20 14 44 17 52 6 19 34 -119 28 -143 -2 -9 0 -14 6 -11 5 3
9 0 7 -7 -3 -29 2 -40 37 -79 l36 -40 187 0 187 0 46 48 c28 28 52 64 60 89
l13 42 35 -21 c19 -12 45 -31 58 -42 22 -20 35 -21 225 -21 111 0 270 1 352 3
83 1 403 0 713 -3 375 -3 587 -1 635 6 95 15 103 14 237 -5 63 -9 151 -19 195
-22 98 -7 616 14 667 27 27 7 44 6 60 -2 24 -13 231 -15 686 -5 l234 5 23 25
c13 15 30 26 38 26 8 0 35 12 61 26 47 26 66 25 67 -4 1 -32 56 -117 89 -140
43 -29 55 -24 55 21 0 28 -4 36 -14 32 -10 -4 -9 1 3 20 17 26 9 34 -14 12 -7
-6 -5 0 6 15 11 17 25 25 34 22 12 -4 13 -3 3 7 -29 29 -8 145 34 191 23 26
30 23 52 -22 l19 -40 -26 -1 c-25 -2 -25 -2 -4 -6 19 -4 22 -9 18 -33 -3 -23
-1 -27 11 -23 13 5 14 3 5 -12 -8 -16 -6 -21 11 -30 25 -12 29 -36 8 -43 -10
-3 -12 1 -8 17 4 18 3 20 -9 10 -19 -15 -18 -44 3 -64 13 -13 14 -23 7 -44
-21 -58 -15 -61 121 -61 l123 0 35 39 c22 24 38 55 42 78 13 76 11 74 73 67
31 -4 68 -12 82 -19 14 -7 68 -15 120 -18 73 -5 101 -3 127 9 52 25 59 39 38
78 -16 29 -17 38 -6 64 11 25 10 35 -3 60 -9 17 -20 34 -26 37 -16 10 -40 74
-40 106 0 124 -62 210 -170 233 -14 3 -33 18 -42 34 -11 19 -39 39 -78 56 -46
21 -64 35 -74 59 -8 18 -35 52 -60 77 l-47 45 -137 5 c-75 3 -155 2 -177 -3
-72 -16 -167 -13 -225 6 -45 15 -74 18 -155 13 -55 -3 -192 -2 -304 4 -167 7
-211 7 -235 -5 -17 -7 -73 -16 -124 -19 -86 -5 -97 -4 -142 19 -30 15 -66 25
-92 25 -42 0 -46 3 -173 132 -72 73 -170 168 -218 212 l-88 78 -72 7 c-40 4
-169 7 -287 5 -118 -1 -249 1 -290 6 -107 13 -415 18 -545 10z m323 -36 c67
-5 92 -11 92 -20 0 -8 9 -14 19 -14 11 0 28 -3 38 -7 16 -6 16 -5 4 10 -21 26
-10 29 63 16 36 -6 77 -9 89 -5 13 3 137 6 275 6 l252 1 118 -104 c64 -57 160
-151 212 -207 99 -107 133 -130 197 -130 37 0 103 -31 103 -48 0 -5 -19 -19
-42 -32 -65 -37 -31 -34 70 5 105 40 192 48 192 18 0 -14 8 -10 32 16 31 33
31 33 102 27 39 -4 177 -7 306 -7 129 0 243 -3 253 -6 9 -2 17 -14 17 -25 0
-20 -3 -21 -250 -16 -218 4 -252 6 -268 22 -17 14 -22 15 -33 3 -8 -7 -31 -16
-53 -20 -62 -10 -86 -31 -86 -77 0 -65 79 -140 149 -140 27 0 31 -5 41 -41 9
-34 14 -38 26 -29 11 10 18 10 30 -1 14 -11 18 -11 29 4 7 10 19 15 29 11 13
-5 16 0 16 24 0 24 5 31 26 36 32 8 47 -3 72 -57 32 -69 37 -128 14 -157 -17
-21 -22 -22 -36 -11 -9 8 -16 29 -16 50 0 31 -31 101 -45 101 -2 0 -21 -9 -41
-20 -20 -12 -44 -18 -55 -15 -25 8 -24 -4 7 -68 32 -64 28 -95 -16 -119 l-30
-17 0 49 c0 83 -30 144 -110 222 -84 82 -123 101 -207 101 -79 -1 -111 -13
-200 -80 -91 -69 -116 -120 -117 -238 -1 -87 10 -116 66 -180 17 -20 28 -38
25 -42 -3 -3 -31 -2 -60 1 l-55 7 -8 47 c-4 26 -8 198 -9 382 0 235 -4 341
-12 356 -7 11 -95 102 -198 202 l-186 182 -82 0 c-45 0 -116 -5 -157 -10 -140
-18 -157 -52 -141 -275 6 -82 15 -188 21 -235 5 -47 11 -212 12 -368 l3 -282
-40 0 c-72 0 -114 11 -120 31 -9 29 -85 27 -92 -2 -5 -16 -12 -20 -34 -17 -16
3 -29 1 -29 -4 0 -4 -7 -8 -15 -8 -8 0 -15 4 -15 9 0 13 -58 34 -76 27 -9 -4
-23 -1 -31 6 -12 10 -17 9 -25 -6 -9 -17 -11 -17 -30 1 -21 18 -21 18 -16 -4
9 -33 -34 -31 -56 2 -17 27 -39 34 -30 11 7 -19 -6 -25 -33 -15 -15 5 -21 14
-17 24 4 8 1 15 -6 15 -6 0 -14 -9 -17 -20 -3 -11 -14 -20 -24 -20 -11 0 -27
-4 -37 -9 -71 -35 -165 -44 -223 -21 -18 8 -34 8 -53 0 -15 -5 -81 -10 -147
-10 -113 0 -166 10 -154 29 3 5 -2 12 -11 15 -12 4 -14 1 -9 -14 6 -18 5 -18
-25 -4 -31 16 -80 12 -80 -6 0 -6 -18 -10 -39 -10 l-39 0 -6 63 c-15 158 -36
470 -36 522 0 65 -22 224 -50 364 -23 111 -38 131 -125 162 -52 19 -87 22
-249 25 -176 3 -192 2 -222 -17 -43 -26 -115 -142 -153 -248 -30 -82 -30 -85
-24 -222 5 -116 4 -139 -8 -139 -8 0 -57 9 -109 21 -149 31 -197 28 -322 -20
-59 -23 -123 -55 -144 -72 -20 -16 -51 -38 -69 -49 -17 -11 -40 -35 -51 -55
-12 -23 -34 -42 -64 -56 -25 -11 -70 -47 -100 -79 -43 -45 -68 -62 -116 -79
-34 -12 -63 -21 -66 -21 -3 0 -13 20 -22 45 -10 25 -33 57 -51 72 l-34 28 19
55 c15 45 33 68 104 135 47 44 106 105 132 135 55 64 107 100 147 100 33 0 27
-19 -6 -21 -17 -1 -18 -2 -4 -6 9 -2 15 -8 13 -12 -3 -4 17 3 45 16 35 17 59
22 79 18 38 -8 100 4 94 19 -7 19 57 45 116 48 46 2 55 -1 58 -16 5 -22 38
-16 34 6 -2 13 18 23 89 44 85 26 95 31 123 71 16 24 40 68 52 99 25 59 95
163 137 203 39 36 136 53 239 41 45 -6 154 -10 240 -10 157 0 157 0 190 -27
65 -55 88 -60 88 -20 0 14 4 17 18 11 42 -18 212 -16 305 5 258 56 529 80 745
65z m839 -69 l28 -26 -42 22 c-46 22 -52 29 -29 29 8 0 28 -11 43 -25z m-274
-10 c-56 -24 -67 -53 -60 -163 13 -200 34 -223 209 -224 88 0 106 -3 124 -20
32 -29 145 -46 187 -28 18 7 55 14 82 14 45 1 50 3 53 25 5 32 -14 66 -44 80
-13 6 -24 17 -24 25 0 17 -56 66 -76 66 -8 0 -14 9 -14 21 0 26 -16 56 -49 94
-50 56 12 2 126 -110 66 -64 117 -122 122 -140 5 -16 11 -193 13 -392 l4 -362
-48 -12 c-27 -6 -56 -8 -64 -5 -9 4 -23 1 -30 -5 -11 -9 -14 -8 -14 5 0 17
-25 22 -35 6 -3 -6 -15 -5 -30 2 -19 9 -31 8 -52 -2 -16 -8 -57 -14 -93 -15
-36 0 -95 -4 -131 -9 -67 -9 -184 -1 -207 13 -9 6 -13 70 -13 262 0 140 -4
297 -9 349 -5 52 -14 174 -21 270 -11 156 -10 179 4 213 17 40 43 56 92 56
l30 0 -32 -14z m-1958 -8 c84 -3 121 -8 155 -24 74 -33 78 -43 111 -235 32
-190 34 -226 18 -278 -5 -19 -14 -74 -19 -122 -9 -96 0 -156 30 -199 22 -30
44 -159 38 -225 l-3 -39 -262 -3 c-248 -3 -263 -2 -263 15 0 10 -13 45 -29 78
-25 50 -52 123 -78 207 -4 12 0 18 11 18 18 0 22 25 6 35 -6 4 -18 1 -26 -6
-13 -11 -17 -10 -24 1 -29 52 -62 89 -103 120 l-47 35 0 76 c0 41 -5 100 -10
131 -10 51 -8 64 20 143 52 152 130 269 183 277 12 2 58 2 102 1 44 -2 130 -4
190 -6z m2292 -109 c35 -38 55 -73 46 -82 -3 -3 -23 -6 -43 -6 -31 0 -42 -6
-63 -33 -14 -19 -27 -47 -29 -63 l-3 -29 -85 -3 c-141 -5 -144 -2 -155 126
l-8 82 27 0 c23 0 26 -4 26 -36 0 -34 1 -35 29 -29 25 5 30 2 41 -25 13 -31
30 -41 30 -17 0 7 6 21 13 31 11 15 17 17 35 7 20 -11 22 -9 22 13 0 40 11 56
37 56 16 0 27 7 30 20 7 27 14 25 50 -12z m131 -135 c41 -21 54 -43 23 -43
-38 0 -55 -68 -25 -101 15 -17 14 -19 -10 -25 -30 -7 -113 2 -151 16 -34 13
-51 77 -31 123 21 52 47 65 107 56 28 -4 67 -16 87 -26z m62 -78 c30 -15 35
-29 24 -59 -7 -19 -34 -9 -34 14 0 22 -24 32 -39 17 -13 -13 -15 1 -5 27 8 20
17 20 54 1z m-3887 -107 c17 -23 18 -28 5 -46 -31 -45 -110 -122 -119 -117 -5
4 -9 37 -9 76 0 39 -4 69 -10 69 -5 0 -10 -9 -10 -20 0 -11 -4 -20 -9 -20 -13
0 -21 -39 -10 -46 6 -3 5 -12 -2 -21 -10 -12 -10 -16 2 -24 12 -7 12 -10 0
-18 -9 -6 -10 -11 -2 -15 12 -8 0 -35 -33 -73 -29 -34 -39 -28 -31 19 4 23 9
67 10 97 3 60 30 151 49 164 6 4 42 6 80 5 61 -3 71 -6 89 -30z m5759 -16 c20
-19 42 -48 47 -64 10 -28 10 -29 -22 -24 -18 3 -90 8 -162 11 -100 4 -143 2
-185 -10 -68 -18 -80 -19 -80 -1 0 29 -28 25 -39 -5 -11 -32 -36 -41 -26 -9 7
23 -18 76 -45 93 -34 20 -25 38 12 25 24 -9 33 -8 36 0 2 8 20 10 56 6 43 -5
54 -3 59 10 6 14 24 15 159 10 l153 -6 37 -36z m-802 -12 c0 -5 -5 -10 -11
-10 -5 0 -7 5 -4 10 3 6 8 10 11 10 2 0 4 -4 4 -10z m230 -4 c0 -3 -4 -8 -10
-11 -5 -3 -10 -1 -10 4 0 6 5 11 10 11 6 0 10 -2 10 -4z m30 0 c0 -3 -4 -8
-10 -11 -5 -3 -10 -1 -10 4 0 6 5 11 10 11 6 0 10 -2 10 -4z m-502 -86 c-14
-4 -32 -11 -40 -16 -10 -6 -10 -4 1 9 7 9 25 17 40 16 l26 -1 -27 -8z m226 1
c3 -5 -9 -11 -27 -14 -37 -5 -48 0 -27 13 19 12 47 13 54 1z m196 -11 c11 -7
7 -10 -18 -10 -20 0 -31 4 -27 10 8 13 26 13 45 0z m663 -16 c98 -16 141 -34
158 -66 10 -18 8 -24 -7 -35 -16 -12 -20 -10 -31 12 -9 16 -22 25 -37 25 -13
0 -37 7 -52 15 -33 17 -130 20 -139 5 -4 -6 14 -10 48 -10 40 0 58 -5 71 -19
10 -10 33 -22 52 -25 42 -8 43 -23 4 -66 -17 -19 -33 -45 -37 -58 -5 -20 -10
-22 -32 -16 -14 4 -38 6 -54 5 -32 -2 -74 23 -79 47 -4 23 -102 26 -197 5 -69
-15 -76 -15 -103 2 -23 13 -33 14 -41 5 -9 -9 -8 -14 6 -24 21 -16 21 -22 2
-30 -15 -5 -65 36 -65 54 0 12 -11 12 -29 1 -7 -5 -10 -14 -7 -20 4 -6 -3 -15
-18 -21 -30 -11 -33 -35 -10 -61 15 -16 14 -21 -17 -58 -18 -23 -40 -41 -49
-41 -26 0 -45 -27 -31 -44 21 -25 -22 -174 -52 -178 -6 0 -129 -2 -272 -3
-143 -1 -315 -6 -381 -10 -67 -4 -130 -5 -139 -1 -17 6 -17 7 -1 25 21 23 35
27 174 45 114 15 171 36 207 76 31 35 209 120 250 120 36 0 95 24 95 38 0 4
10 12 23 17 12 6 34 34 49 64 37 73 68 103 148 145 67 36 214 91 260 98 45 8
243 -3 333 -18z m-1093 -9 c-7 -8 -17 -15 -22 -15 -6 0 -5 7 2 15 7 8 17 15
22 15 6 0 5 -7 -2 -15z m220 11 c0 -2 -7 -7 -16 -10 -8 -3 -12 -2 -9 4 6 10
25 14 25 6z m-180 -23 c-8 -3 -24 -10 -35 -16 -18 -9 -19 -9 -6 6 7 10 23 17
35 16 14 0 16 -2 6 -6z m215 -2 c-6 -4 -23 -11 -40 -15 -28 -6 -29 -5 -11 9
21 16 67 22 51 6z m168 2 c-7 -2 -19 -2 -25 0 -7 3 -2 5 12 5 14 0 19 -2 13
-5z m-4357 -28 c138 -28 179 -52 236 -135 49 -72 93 -165 102 -215 4 -22 18
-56 31 -75 17 -26 25 -56 30 -112 l7 -78 -31 0 c-64 0 -71 11 -71 108 0 50 5
93 11 99 12 12 -18 81 -51 118 -9 11 -26 33 -36 50 -17 27 -18 29 -1 22 12 -4
17 -2 17 9 0 12 -6 15 -23 11 -12 -4 -29 -2 -37 3 -10 7 -11 10 -2 10 20 0 13
14 -14 27 -14 6 -32 9 -40 6 -8 -3 -20 -1 -27 5 -6 5 -48 24 -92 42 -73 29
-88 31 -185 30 -58 -1 -117 -1 -132 0 -46 2 -94 -3 -79 -8 10 -3 8 -10 -10
-24 -17 -14 -19 -18 -6 -14 32 10 30 -22 -3 -63 -26 -31 -40 -41 -69 -43 -32
-3 -36 -6 -34 -30 1 -19 -4 -28 -20 -33 -19 -6 -20 -8 -4 -12 21 -5 23 -39 2
-47 -8 -3 -14 -15 -12 -28 2 -19 -3 -23 -27 -23 -17 -1 -44 -14 -67 -34 -34
-28 -46 -32 -87 -30 -26 1 -59 -4 -73 -11 -22 -10 -32 -9 -59 5 -19 10 -42 14
-57 10 -45 -11 -20 19 33 39 112 43 127 52 171 103 27 31 64 61 89 72 26 12
49 31 58 49 18 35 136 138 175 154 104 41 192 68 227 68 23 0 95 -11 160 -25z
m3974 0 c-33 -19 -50 -18 -26 0 11 8 27 15 35 15 10 -1 7 -6 -9 -15z m410 5
c0 -5 -12 -10 -27 -10 -22 0 -25 2 -13 10 20 13 40 13 40 0z m-205 -15 c-16
-7 -32 -11 -35 -9 -7 8 24 24 45 23 15 0 13 -4 -10 -14z m133 -14 c8 -22 7
-34 -4 -50 -22 -30 -30 -26 -42 21 -8 32 -8 44 1 50 22 14 35 8 45 -21z m-308
12 c-8 -3 -27 -12 -42 -20 -16 -7 -28 -11 -28 -9 0 9 54 35 70 35 13 -1 13 -1
0 -6z m190 -27 c-37 -14 -54 -11 -30 4 8 6 26 9 40 9 22 0 21 -2 -10 -13z
m-210 -4 c0 -13 -12 -22 -22 -16 -10 6 -1 24 13 24 5 0 9 -4 9 -8z m215 -22
c-3 -5 -14 -10 -23 -10 -15 0 -15 2 -2 10 20 13 33 13 25 0z m1105 -20 c47
-24 71 -66 74 -128 1 -38 -3 -47 -27 -65 l-27 -21 -23 23 c-15 16 -18 25 -10
28 7 2 23 13 35 23 l23 19 -22 1 c-27 0 -30 12 -8 30 23 19 18 30 -16 30 -26
0 -29 3 -24 21 6 19 4 20 -24 14 -28 -6 -31 -4 -31 19 0 33 25 34 80 6z m-62
-158 c51 -62 53 -79 8 -88 -48 -8 -87 2 -126 35 -30 25 -33 32 -31 79 2 73 15
98 58 121 l38 19 5 -58 c4 -50 11 -65 48 -108z m-998 149 c0 -8 -61 -22 -69
-15 -1 1 0 7 4 13 8 13 65 15 65 2z m-670 -31 c-9 -17 -14 -18 -30 -8 -24 15
-16 28 16 28 22 0 23 -3 14 -20z m100 -1 c45 -25 90 -92 90 -134 0 -47 -20
-108 -43 -132 -26 -29 -29 -29 -49 6 l-16 29 31 -4 c27 -5 34 -1 44 22 9 20
10 31 2 41 -8 9 -8 13 0 13 6 0 11 9 11 20 0 14 -7 20 -22 20 -20 0 -20 1 -4
19 19 21 14 41 -10 41 -8 0 -14 9 -14 20 0 13 -7 20 -19 20 -11 0 -21 6 -24
13 -4 10 -7 10 -18 0 -18 -18 -26 -16 -32 7 -7 27 24 27 73 -1z m570 2 c0 -5
-11 -11 -25 -13 -26 -5 -35 6 -12 15 20 9 37 8 37 -2z m-730 -39 c0 -9 -7 -8
-26 5 -24 15 -25 17 -8 24 19 6 34 -6 34 -29z m554 7 c-3 -5 -10 -7 -15 -3 -5
3 -7 10 -3 15 3 5 10 7 15 3 5 -3 7 -10 3 -15z m-524 -9 c6 -11 8 -20 6 -20
-3 0 -10 9 -16 20 -6 11 -8 20 -6 20 3 0 10 -9 16 -20z m705 11 c-16 -14 -55
-23 -55 -12 0 9 20 17 50 20 8 1 10 -2 5 -8z m-658 -33 c-3 -7 -5 -2 -5 12 0
14 2 19 5 13 2 -7 2 -19 0 -25z m-134 8 c3 -8 -1 -17 -10 -20 -10 -4 -13 -14
-9 -31 4 -14 2 -25 -4 -25 -20 0 -10 -28 12 -34 22 -5 22 -6 3 -20 -18 -13
-21 -13 -28 0 -12 22 -11 65 2 107 13 39 25 47 34 23z m582 -11 c-50 -18 -55
-18 -31 0 11 8 31 15 45 15 22 -1 19 -3 -14 -15z m205 6 c0 -9 -41 -23 -49
-16 -3 4 28 20 47 24 1 1 2 -3 2 -8z m-726 -16 c11 -8 17 -17 14 -20 -3 -3
-16 3 -29 14 -27 23 -14 28 15 6z m146 11 c0 -2 -8 -10 -17 -17 -16 -13 -17
-12 -4 4 13 16 21 21 21 13z m40 -24 c0 -5 -11 -14 -25 -20 -28 -13 -35 1 -7
17 21 13 32 14 32 3z m-219 -20 c-7 -2 -18 1 -23 6 -8 8 -4 9 13 5 13 -4 18
-8 10 -11z m582 1 c-7 -2 -19 -2 -25 0 -7 3 -2 5 12 5 14 0 19 -2 13 -5z m4
-19 c-3 -3 -12 -4 -19 -1 -8 3 -5 6 6 6 11 1 17 -2 13 -5z m-357 -20 c0 -2
-14 -4 -31 -4 -16 0 -28 4 -25 9 5 8 56 3 56 -5z m-217 -1 c-7 -2 -19 -2 -25
0 -7 3 -2 5 12 5 14 0 19 -2 13 -5z m1197 -2 c0 -5 3 -17 7 -27 5 -14 3 -16
-10 -11 -15 6 -16 4 -6 -14 17 -33 4 -32 -25 1 -27 32 -27 61 0 39 12 -10 13
-9 8 5 -4 11 -1 16 10 16 9 0 16 -4 16 -9z m-5773 -84 c3 -36 1 -72 -5 -83
-11 -20 -12 -19 -38 51 -13 35 -11 79 5 98 22 26 32 8 38 -66z m78 33 c17 -19
24 -108 10 -130 -15 -24 -22 -6 -17 41 3 37 2 50 -7 45 -6 -4 -11 -16 -11 -26
0 -10 -4 -22 -10 -25 -6 -4 -10 6 -10 22 0 15 -3 45 -6 65 -6 33 -5 36 14 31
11 -3 28 -13 37 -23z m4501 15 c-11 -8 -25 -15 -30 -15 -6 0 -2 7 8 15 11 8
25 15 30 15 6 0 2 -7 -8 -15z m1146 -12 c22 -28 22 -69 -2 -69 -10 0 -17 2
-14 5 2 2 -6 16 -18 29 -18 20 -19 24 -5 19 52 -20 52 -20 30 2 -13 12 -23 24
-23 26 0 11 18 4 32 -12z m578 -33 c38 0 72 8 109 25 58 27 66 25 76 -17 5
-21 3 -27 -14 -33 -12 -3 -30 -3 -41 0 -12 4 -31 0 -45 -9 -25 -17 -83 -20
-147 -10 -29 5 -42 15 -58 41 -29 50 -25 55 23 28 30 -18 57 -25 97 -25z
m-1695 20 c-10 -11 -20 -18 -23 -15 -7 6 18 35 31 35 5 0 2 -9 -8 -20z m-62
-27 c-4 -9 2 -16 16 -20 24 -6 29 -23 7 -23 -14 0 -56 45 -56 60 0 5 9 6 19 3
12 -3 17 -11 14 -20z m197 -40 c0 -2 -4 -3 -10 -3 -9 0 -40 51 -40 66 0 5 11
-7 25 -26 14 -19 25 -35 25 -37z m-3696 21 c95 -62 60 -233 -56 -273 -26 -9
-28 -8 -28 16 0 22 3 25 26 20 20 -3 28 0 31 14 3 11 9 19 14 19 5 0 9 11 9
25 0 16 6 25 15 25 8 0 15 7 15 15 0 9 -9 15 -22 15 -22 1 -22 1 -4 15 22 16
14 50 -9 41 -12 -4 -14 0 -9 19 5 20 2 25 -14 25 -11 0 -23 7 -26 16 -6 15 -8
15 -25 0 -17 -16 -19 -16 -24 6 -4 12 -1 25 4 29 16 9 70 -5 103 -27z m-141 5
c-4 -13 -9 -17 -15 -11 -11 11 -3 32 12 32 4 0 6 -9 3 -21z m4932 14 c-11 -3
-26 -10 -33 -16 -15 -12 -27 -3 -17 12 3 6 21 10 38 10 21 -1 25 -3 12 -6z
m55 -3 c0 -5 -4 -10 -9 -10 -6 0 -13 5 -16 10 -3 6 1 10 9 10 9 0 16 -4 16
-10z m103 -46 c15 -14 27 -34 27 -43 0 -28 -12 -61 -22 -61 -5 0 -7 9 -3 19 4
14 0 21 -15 26 -20 6 -21 7 -3 21 17 13 17 14 -4 20 -13 3 -23 13 -23 20 0 8
-7 14 -15 14 -15 0 -20 12 -9 23 9 9 34 -6 67 -39z m-83 29 c0 -5 -7 -17 -15
-27 -15 -20 -15 -20 -15 0 0 12 3 24 7 27 9 9 23 9 23 0z m-5051 -46 c1 -4 -8
-2 -18 5 -16 10 -17 15 -8 26 9 12 12 11 18 -5 4 -10 8 -21 8 -26z m4976 33
c3 -5 2 -10 -4 -10 -5 0 -13 5 -16 10 -3 6 -2 10 4 10 5 0 13 -4 16 -10z m685
-16 c20 -36 3 -44 -90 -44 -52 0 -70 -3 -60 -10 8 -5 37 -10 63 -10 30 0 46
-4 42 -10 -8 -13 -80 -13 -165 1 -57 10 -70 16 -79 36 -6 13 -11 25 -11 27 0
1 44 3 98 3 59 1 113 7 137 17 53 19 50 20 65 -10z m-1880 -16 c0 -3 -9 -4
-20 -1 -16 4 -18 8 -9 20 10 11 14 11 20 1 5 -7 9 -16 9 -20z m68 20 c18 -18
15 -28 -8 -28 -13 0 -20 7 -20 20 0 23 10 26 28 8z m-3818 -26 c0 -15 -2 -15
-10 -2 -13 20 -13 33 0 25 6 -3 10 -14 10 -23z m27 6 c-3 -8 -6 -5 -6 6 -1 11
2 17 5 13 3 -3 4 -12 1 -19z m53 2 c-6 -11 -15 -20 -20 -20 -6 0 -5 9 2 20 7
11 16 20 21 20 4 0 3 -9 -3 -20z m4860 -12 c0 -6 -7 -5 -15 2 -8 7 -15 17 -15
22 0 6 7 5 15 -2 8 -7 15 -17 15 -22z m-5125 2 c3 -5 2 -10 -4 -10 -5 0 -13 5
-16 10 -3 6 -2 10 4 10 5 0 13 -4 16 -10z m-673 -22 c-7 -7 -12 -8 -12 -2 0
14 12 26 19 19 2 -3 -1 -11 -7 -17z m958 7 c-7 -8 -17 -15 -22 -15 -6 0 -5 7
2 15 7 8 17 15 22 15 6 0 5 -7 -2 -15z m-450 -57 c0 -67 -5 -81 -32 -91 -12
-4 -18 -1 -18 8 0 27 -17 15 -24 -16 -6 -30 -8 -31 -38 -24 -18 4 -42 7 -53 7
-10 -1 -25 4 -33 10 -11 9 -16 8 -23 -5 -9 -15 -28 -17 -149 -17 -147 0 -170
4 -170 27 0 8 5 11 10 8 14 -9 70 4 70 16 0 5 -22 9 -50 9 -47 0 -50 2 -50 25
0 14 1 28 3 33 1 4 42 8 92 9 50 1 99 3 109 3 11 1 37 -17 59 -40 38 -39 57
-49 57 -31 0 5 -7 14 -15 21 -33 27 -12 50 46 50 29 0 29 0 13 -25 -9 -14 -14
-28 -11 -32 10 -9 57 7 63 21 3 8 22 32 42 54 28 31 45 41 70 41 l32 1 0 -62z
m258 19 c-27 -10 -32 -4 -18 23 11 21 12 21 25 3 12 -16 11 -19 -7 -26z m61
30 c6 -8 8 -17 4 -20 -7 -8 -33 11 -33 24 0 13 16 11 29 -4z m-154 -7 c3 -5
-1 -10 -9 -10 -9 0 -16 5 -16 10 0 6 4 10 9 10 6 0 13 -4 16 -10z m325 -15
c-33 -19 -50 -18 -26 0 11 8 27 15 35 15 10 -1 7 -6 -9 -15z m-340 -15 c0 -5
-2 -10 -4 -10 -3 0 -8 5 -11 10 -3 6 -1 10 4 10 6 0 11 -4 11 -10z m2835 -20
c140 -19 160 -23 171 -32 6 -4 18 -6 27 -2 8 3 32 1 52 -5 30 -8 42 -6 73 11
33 18 47 19 162 14 87 -5 150 -3 210 7 67 11 105 12 184 3 135 -15 111 -31
-59 -40 -71 -4 -159 -10 -195 -15 -36 -4 -96 -4 -135 0 -38 3 -124 2 -190 -3
-86 -7 -130 -7 -158 2 -56 17 -205 40 -259 40 -26 0 -59 -5 -75 -11 -35 -15
-741 -21 -749 -7 -3 5 -12 4 -20 -3 -19 -16 -336 -3 -346 14 -5 9 -10 9 -19 0
-9 -9 -16 -9 -25 -2 -8 6 -23 7 -36 3 -23 -7 -75 -10 -388 -17 -187 -5 -230
-1 -230 19 0 11 38 14 208 16 368 4 815 -1 821 -10 9 -12 81 -14 81 -2 0 6 50
8 148 5 268 -10 306 -9 427 8 202 28 176 27 320 7z m-2810 -10 c3 -5 -3 -10
-14 -10 -11 0 -23 5 -26 10 -3 6 3 10 14 10 11 0 23 -4 26 -10z m302 4 c-3 -3
-12 -4 -19 -1 -8 3 -5 6 6 6 11 1 17 -2 13 -5z m4963 -4 c0 -5 -4 -10 -10 -10
-5 0 -10 5 -10 10 0 6 5 10 10 10 6 0 10 -4 10 -10z m367 -12 c-3 -8 -6 -5 -6
6 -1 11 2 17 5 13 3 -3 4 -12 1 -19z m150 -10 c-3 -7 -5 -2 -5 12 0 14 2 19 5
13 2 -7 2 -19 0 -25z m-5670 6 c-3 -3 -12 -4 -19 -1 -8 3 -5 6 6 6 11 1 17 -2
13 -5z m-112 -14 c3 -5 -3 -10 -14 -10 -12 0 -21 5 -21 10 0 6 6 10 14 10 8 0
18 -4 21 -10z m95 -20 c0 -16 -22 -23 -31 -9 -16 26 -11 41 11 29 11 -6 20
-15 20 -20z m204 24 c9 -3 14 -10 11 -15 -7 -10 -35 0 -35 12 0 11 3 11 24 3z
m4896 -15 c0 -6 -4 -7 -10 -4 -5 3 -10 11 -10 16 0 6 5 7 10 4 6 -3 10 -11 10
-16z m90 12 c0 -4 -9 -20 -21 -35 -24 -31 -60 -36 -52 -7 3 13 11 17 25 13 18
-4 20 -2 16 16 -5 17 -2 22 13 22 10 0 19 -4 19 -9z m-5136 -10 c3 -5 -1 -12
-10 -15 -20 -8 -29 -1 -19 13 8 13 22 14 29 2z m5006 5 c0 -3 -4 -8 -10 -11
-5 -3 -10 -1 -10 4 0 6 5 11 10 11 6 0 10 -2 10 -4z m28 -36 c12 -20 6 -25
-22 -14 -8 3 -12 12 -9 20 7 19 16 18 31 -6z m-5018 -15 c-7 -9 -15 -13 -18
-10 -3 2 1 11 8 20 7 9 15 13 18 10 3 -2 -1 -11 -8 -20z m-37 -14 c3 -14 0
-17 -14 -14 -22 6 -25 19 -6 26 6 3 13 6 13 6 1 1 4 -7 7 -18z m52 -21 c3 -5
-3 -10 -15 -10 -12 0 -18 5 -15 10 3 6 10 10 15 10 5 0 12 -4 15 -10z m50 -10
c3 -5 2 -10 -4 -10 -5 0 -13 5 -16 10 -3 6 -2 10 4 10 5 0 13 -4 16 -10z
m4902 -42 c-3 -7 -5 -2 -5 12 0 14 2 19 5 13 2 -7 2 -19 0 -25z"></path>
<path d="M3070 1430 c0 -5 7 -10 15 -10 8 0 15 5 15 10 0 6 -7 10 -15 10 -8 0
-15 -4 -15 -10z"></path>
<path d="M3275 1420 c-3 -5 -1 -10 4 -10 6 0 11 5 11 10 0 6 -2 10 -4 10 -3 0
-8 -4 -11 -10z"></path>
<path d="M1536 1399 c-14 -11 -26 -28 -26 -37 0 -10 3 -13 8 -7 9 13 42 34 65
41 9 4 17 10 17 15 0 16 -37 9 -64 -12z"></path>
<path d="M3395 1410 c-4 -7 -24 -8 -51 -4 -32 4 -44 3 -44 -6 0 -9 -12 -11
-42 -7 -50 7 -143 -15 -178 -42 -22 -16 -25 -26 -23 -72 1 -30 8 -85 16 -124
11 -51 12 -74 4 -87 -12 -18 -12 -19 75 -105 37 -36 45 -40 67 -32 32 13 143
28 246 34 128 8 164 14 201 31 44 21 58 47 55 103 -1 27 4 48 11 52 10 6 8 12
-6 22 -11 8 -15 17 -9 20 16 10 -2 88 -25 106 -11 9 -23 26 -27 39 -4 12 -23
34 -43 47 -38 25 -80 30 -159 19 -28 -4 -43 -2 -43 5 0 14 -17 14 -25 1z m179
-84 c-19 -61 -21 -63 -86 -77 -55 -12 -59 -14 -29 -17 31 -3 33 -5 27 -33 -7
-38 2 -37 15 1 19 54 59 27 59 -39 0 -17 5 -31 10 -31 6 0 10 7 10 17 0 14 2
14 20 -2 33 -29 32 -12 -1 28 -33 40 -38 73 -20 130 23 69 41 46 77 -95 16
-65 24 -118 20 -133 -8 -33 -58 -55 -124 -55 -54 0 -59 6 -81 88 -12 42 -46
92 -63 92 -6 0 -3 -9 7 -20 25 -27 15 -33 -58 -38 -58 -4 -63 -2 -76 21 -18
33 -7 47 32 41 31 -4 31 -4 7 8 -14 6 -27 13 -29 15 -2 2 4 12 14 23 10 11 13
20 7 20 -6 0 -21 -15 -33 -32 -12 -18 -24 -35 -25 -37 -2 -2 -18 13 -37 33
-19 20 -43 36 -53 36 -18 -1 -18 -1 0 -15 19 -14 18 -15 -5 -24 -22 -9 -21
-10 13 -10 29 -1 41 -7 54 -26 19 -30 15 -36 -34 -51 -44 -14 -12 -18 34 -5
20 6 37 5 50 -3 10 -6 53 -11 94 -11 l74 0 18 -48 c14 -36 15 -49 5 -52 -6 -3
-72 -1 -146 4 -124 8 -135 10 -159 34 -21 21 -28 43 -38 107 -13 93 -9 127 16
140 10 6 76 15 147 21 70 6 160 14 198 18 85 9 98 5 89 -23z m-354 -316 c0 -5
-5 -10 -11 -10 -5 0 -7 5 -4 10 3 6 8 10 11 10 2 0 4 -4 4 -10z"></path>
<path d="M2760 1400 c0 -5 5 -10 10 -10 6 0 10 5 10 10 0 6 -4 10 -10 10 -5 0
-10 -4 -10 -10z"></path>
<path d="M2740 1365 c-32 -8 -59 -10 -64 -5 -5 5 -17 5 -28 -1 -14 -7 -23 -7
-33 1 -10 8 -19 8 -34 1 -11 -6 -28 -11 -39 -11 -11 0 -25 -7 -32 -15 -10 -12
-32 -15 -95 -14 -151 4 -187 -45 -146 -197 56 -212 54 -208 121 -199 37 5 55
2 97 -20 39 -19 57 -23 70 -16 27 14 55 24 78 27 79 10 110 13 190 19 110 9
161 28 181 66 13 26 13 40 -2 131 -18 118 -45 190 -77 207 -22 11 -118 41
-127 40 -3 0 -30 -7 -60 -14z m160 -63 c15 -12 29 -47 46 -111 29 -111 30
-152 7 -173 -26 -23 -47 -27 -158 -30 l-100 -2 -9 51 c-8 50 -8 53 29 98 21
25 35 49 31 53 -4 4 -16 -4 -26 -18 -15 -20 -21 -23 -31 -12 -20 19 -31 14
-19 -8 8 -16 8 -28 -2 -50 -16 -37 -46 -39 -78 -5 -13 14 -28 25 -34 25 -6 0
-5 -5 2 -12 18 -18 15 -36 -8 -43 -11 -4 -18 -10 -15 -15 3 -5 18 -4 34 1 44
15 101 -11 101 -47 l0 -27 -132 5 c-165 7 -184 14 -202 82 -29 107 -28 139 4
101 7 -9 19 -14 26 -11 8 3 22 -11 35 -34 13 -22 26 -40 30 -40 3 0 12 20 19
45 13 45 26 55 47 34 8 -8 14 -5 23 12 7 13 14 26 16 28 1 2 16 -6 32 -18 33
-23 42 -19 42 17 0 19 4 23 20 19 13 -3 24 3 35 19 11 18 25 24 50 24 18 0 40
6 47 13 51 48 101 59 138 29z"></path>
<path d="M2428 1343 c6 -2 18 -2 25 0 6 3 1 5 -13 5 -14 0 -19 -2 -12 -5z"></path>
<path d="M1405 1203 c-4 -16 -13 -40 -21 -55 -8 -14 -14 -34 -14 -45 1 -17 1
-17 11 0 5 9 16 17 24 17 21 0 26 15 15 44 -6 16 -6 27 0 31 13 8 13 35 0 35
-5 0 -12 -12 -15 -27z"></path>
<path d="M1325 1050 c3 -5 8 -10 11 -10 2 0 4 5 4 10 0 6 -5 10 -11 10 -5 0
-7 -4 -4 -10z"></path>
<path d="M1237 1001 c-35 -21 -44 -30 -33 -34 20 -8 21 -36 1 -43 -20 -8 -1
-34 24 -34 22 0 63 29 56 40 -3 4 3 6 14 3 27 -7 35 13 11 30 -16 11 -19 21
-14 41 8 32 1 32 -59 -3z"></path>
<path d="M5095 980 c-3 -5 3 -10 14 -10 12 0 21 5 21 10 0 6 -6 10 -14 10 -8
0 -18 -4 -21 -10z"></path>
<path d="M4600 969 c0 -13 38 -39 56 -38 18 0 18 1 -1 9 -16 7 -13 9 18 9 42
1 51 20 10 23 -71 4 -83 3 -83 -3z"></path>
<path d="M1103 948 c-13 -6 -23 -15 -23 -21 0 -15 90 -1 108 17 15 15 13 16
-23 15 -22 0 -50 -5 -62 -11z"></path>
<path d="M3531 931 c-8 -5 -9 -11 -3 -15 14 -8 43 4 36 15 -7 11 -15 11 -33 0z"></path>
<path d="M1346 917 c3 -10 9 -15 12 -12 3 3 0 11 -7 18 -10 9 -11 8 -5 -6z"></path>
<path d="M3588 923 c7 -3 16 -2 19 1 4 3 -2 6 -13 5 -11 0 -14 -3 -6 -6z"></path>
<path d="M4910 920 c0 -5 4 -10 9 -10 6 0 13 5 16 10 3 6 -1 10 -9 10 -9 0
-16 -4 -16 -10z"></path>
<path d="M3054 885 c1 -37 19 -51 50 -39 24 9 20 28 -14 52 -16 12 -31 22 -33
22 -2 0 -3 -16 -3 -35z"></path>
<path d="M868 885 c-20 -14 -42 -25 -48 -25 -13 0 -60 -49 -60 -62 0 -11 52
23 93 61 15 14 40 31 55 37 15 7 20 13 12 13 -9 1 -32 -10 -52 -24z"></path>
<path d="M1015 900 c-3 -5 -2 -10 4 -10 5 0 13 5 16 10 3 6 2 10 -4 10 -5 0
-13 -4 -16 -10z"></path>
<path d="M3240 900 c-13 -8 -13 -10 2 -10 9 0 20 5 23 10 8 13 -5 13 -25 0z"></path>
<path d="M3365 900 c-3 -5 -19 -10 -35 -10 -18 0 -52 -16 -90 -42 -33 -24 -71
-49 -83 -55 -32 -18 2 -16 37 2 15 8 45 15 66 15 29 0 44 6 62 28 12 15 39 34
58 41 51 20 59 31 23 31 -18 0 -35 -4 -38 -10z"></path>
<path d="M4790 890 c-65 -22 -150 -68 -150 -81 0 -14 33 -10 54 6 11 8 27 15
35 15 11 -1 9 -4 -6 -13 -14 -8 -19 -17 -14 -25 6 -10 11 -8 23 5 8 10 18 26
21 36 4 9 15 17 26 17 11 0 23 5 27 11 3 6 20 19 38 30 39 24 17 24 -54 -1z"></path>
<path d="M950 880 l-25 -20 39 0 c35 0 37 2 25 18 -7 9 -14 18 -14 19 0 1 -11
-7 -25 -17z"></path>
<path d="M1040 880 c-12 -8 -11 -10 7 -10 12 0 25 5 28 10 8 13 -15 13 -35 0z"></path>
<path d="M4660 880 c0 -5 6 -10 14 -10 8 0 18 5 21 10 3 6 -3 10 -14 10 -12 0
-21 -4 -21 -10z"></path>
<path d="M747 866 c-9 -7 -28 -11 -40 -9 -15 3 -43 -7 -75 -27 -28 -17 -56
-29 -61 -26 -11 7 -34 -20 -36 -43 -1 -15 12 -9 64 25 47 32 75 44 101 44 24
0 43 7 55 20 22 24 17 34 -8 16z"></path>
<path d="M3565 859 c-22 -5 -62 -11 -88 -14 -32 -4 -58 -16 -80 -34 -18 -16
-48 -31 -68 -35 -20 -3 -44 -15 -54 -26 -10 -11 -26 -20 -36 -20 -19 0 -109
-36 -109 -44 0 -3 12 -1 28 4 15 4 57 11 94 14 70 7 186 57 219 96 18 21 117
41 105 21 -15 -23 24 -10 54 19 l31 30 -28 -1 c-15 -1 -46 -5 -68 -10z"></path>
<path d="M4921 861 c-12 -8 -9 -11 12 -17 30 -7 43 -1 32 15 -8 13 -25 14 -44
2z"></path>
<path d="M1088 853 c7 -3 16 -2 19 1 4 3 -2 6 -13 5 -11 0 -14 -3 -6 -6z"></path>
<path d="M2473 830 c4 -14 7 -40 7 -58 0 -25 6 -35 26 -44 14 -7 32 -23 39
-37 13 -24 14 -24 15 -5 0 12 -13 40 -30 62 -16 23 -30 50 -30 61 0 10 -8 25
-17 32 -15 13 -16 11 -10 -11z"></path>
<path d="M2680 820 c0 -16 74 -90 89 -90 21 0 11 19 -16 32 -15 7 -30 24 -33
38 -6 25 -40 42 -40 20z"></path>
<path d="M2763 803 c-21 -8 -15 -20 22 -42 19 -11 35 -16 35 -11 0 17 -45 58
-57 53z"></path>
<path d="M652 783 c-16 -6 -82 -92 -82 -106 0 -6 16 4 35 23 39 38 45 31 15
-17 -26 -43 -11 -42 16 1 16 25 41 109 31 105 -1 0 -8 -3 -15 -6z"></path>
<path d="M2443 783 c-22 -8 -15 -43 7 -43 13 0 20 7 20 19 0 22 -9 30 -27 24z"></path>
<path d="M753 757 c-41 -22 -110 -93 -79 -81 9 3 16 1 16 -5 0 -6 5 -11 10
-11 6 0 9 3 8 8 -1 4 6 21 15 39 17 32 44 47 84 48 13 0 24 5 25 10 5 19 -37
15 -79 -8z"></path>
<path d="M3645 770 c-3 -5 -1 -10 4 -10 6 0 11 5 11 10 0 6 -2 10 -4 10 -3 0
-8 -4 -11 -10z"></path>
<path d="M2630 761 c0 -6 25 -27 55 -47 39 -26 55 -43 55 -59 0 -12 11 -38 24
-58 19 -28 24 -44 19 -72 -4 -24 -2 -35 7 -35 9 0 11 -11 7 -37 -5 -34 -5 -36
8 -20 13 18 14 17 17 -5 2 -13 -2 -43 -9 -67 -10 -38 -10 -42 2 -30 8 8 21 28
30 44 l17 30 -5 -35 c-4 -30 -2 -36 13 -37 11 -1 22 7 25 18 8 24 -15 86 -25
69 -3 -5 -7 16 -8 47 -1 39 -10 74 -27 107 -14 27 -25 58 -25 67 0 10 -10 25
-22 32 -13 8 -43 26 -68 41 -25 14 -55 33 -67 42 -14 10 -23 12 -23 5z"></path>
<path d="M3125 751 c-7 -12 31 -25 45 -16 5 3 10 10 10 16 0 12 -47 12 -55 0z"></path>
<path d="M3598 733 c-21 -8 -38 -21 -38 -28 0 -7 -16 -23 -35 -35 -19 -12 -33
-26 -29 -31 7 -12 34 -12 34 0 0 6 19 11 43 13 35 2 43 7 45 26 3 17 10 22 32
22 36 0 45 13 24 34 -19 19 -28 19 -76 -1z"></path>
<path d="M534 708 c-31 -35 -56 -79 -49 -86 7 -8 84 78 85 96 0 19 -14 14 -36
-10z"></path>
<path d="M760 710 c-11 -8 -7 -9 15 -4 37 8 45 14 19 14 -10 0 -26 -5 -34 -10z"></path>
<path d="M3400 694 c-24 -14 -58 -27 -75 -29 -98 -13 -200 -43 -264 -79 l-24
-13 22 -12 c12 -7 35 -10 51 -6 36 8 48 -10 24 -36 -11 -12 -13 -19 -5 -19 15
0 41 25 41 39 0 10 55 41 73 41 5 0 24 16 41 36 25 29 39 36 71 38 29 2 49 11
74 34 40 39 31 40 -29 6z"></path>
<path d="M430 660 c8 -29 7 -30 -17 -24 -18 5 -24 3 -19 -5 8 -12 66 -15 66
-3 0 14 -25 62 -32 62 -4 0 -3 -14 2 -30z"></path>
<path d="M2867 659 c6 -30 51 -89 67 -89 9 0 7 46 -4 75 -6 15 -15 23 -21 20
-5 -4 -19 1 -30 11 -19 17 -19 16 -12 -17z"></path>
<path d="M2626 627 c-5 -28 -3 -43 6 -48 7 -5 11 -23 9 -44 l-3 -37 22 22 c18
18 20 26 12 45 -6 13 -8 39 -5 58 4 28 2 35 -15 39 -17 5 -21 -1 -26 -35z"></path>
<path d="M3075 660 c-3 -5 -2 -10 4 -10 5 0 13 5 16 10 3 6 2 10 -4 10 -5 0
-13 -4 -16 -10z"></path>
<path d="M542 643 c-7 -2 -17 -14 -23 -25 -11 -20 -10 -20 20 1 39 28 41 39 3
24z"></path>
<path d="M2304 639 c-3 -6 -1 -16 5 -22 8 -8 11 -5 11 11 0 24 -5 28 -16 11z"></path>
<path d="M2560 599 c0 -23 26 -54 34 -41 8 14 -5 50 -20 56 -9 4 -14 -2 -14
-15z"></path>
<path d="M3435 580 c-4 -6 5 -10 19 -10 14 0 26 5 26 10 0 6 -9 10 -19 10 -11
0 -23 -4 -26 -10z"></path>
<path d="M2380 570 c0 -5 5 -10 10 -10 6 0 10 5 10 10 0 6 -4 10 -10 10 -5 0
-10 -4 -10 -10z"></path>
<path d="M370 548 c0 -9 5 -20 10 -23 6 -3 10 -23 10 -43 0 -44 14 -72 23 -49
3 10 13 13 25 10 11 -2 23 0 27 7 4 7 -1 14 -14 17 -13 3 -24 17 -29 37 -5 17
-14 31 -21 31 -6 0 -16 7 -21 15 -8 13 -10 13 -10 -2z"></path>
<path d="M437 553 c-5 -9 10 -53 18 -53 3 0 5 14 5 30 0 28 -13 40 -23 23z"></path>
<path d="M480 545 c0 -8 4 -15 10 -15 5 0 7 7 4 15 -4 8 -8 15 -10 15 -2 0 -4
-7 -4 -15z"></path>
<path d="M3687 533 c9 -27 24 -43 39 -43 21 0 17 19 -8 41 -29 23 -39 24 -31
2z"></path>
<path d="M2928 506 c-8 -42 35 -65 47 -26 7 23 -2 43 -16 35 -5 -4 -9 -1 -9 4
0 21 -18 10 -22 -13z"></path>
<path d="M3602 508 c7 -13 20 -28 28 -35 13 -11 12 -12 -7 -13 -41 0 -24 -26
40 -60 17 -9 38 -29 45 -44 7 -14 18 -26 23 -26 6 0 8 4 5 9 -4 5 -1 11 5 13
16 5 -68 125 -102 145 -16 10 -29 21 -29 25 0 4 -5 8 -10 8 -6 0 -5 -9 2 -22z"></path>
<path d="M2362 464 c2 -39 7 -50 22 -52 15 -3 17 0 11 14 -4 11 -10 31 -13 47
-8 48 -23 42 -20 -9z"></path>
<path d="M2650 455 c-9 -16 -22 -30 -30 -30 -23 -1 -40 -14 -40 -32 0 -9 -8
-25 -17 -36 -17 -19 -17 -20 5 -15 25 7 26 5 12 -23 -17 -31 3 -22 33 16 35
44 59 100 55 129 -3 19 -5 18 -18 -9z"></path>
<path d="M3340 448 c-56 -15 -56 -26 -1 -29 38 -3 50 -1 46 9 -2 6 0 12 5 12
6 0 10 5 10 10 0 12 -13 12 -60 -2z"></path>
<path d="M3545 430 c3 -5 13 -10 21 -10 8 0 12 5 9 10 -3 6 -13 10 -21 10 -8
0 -12 -4 -9 -10z"></path>
<path d="M2726 388 c-22 -30 -20 -38 7 -38 18 0 22 5 22 25 -2 36 -11 40 -29
13z"></path>
<path d="M3400 360 c0 -5 7 -10 15 -10 8 0 15 5 15 10 0 6 -7 10 -15 10 -8 0
-15 -4 -15 -10z"></path>
<path d="M2342 348 c-16 -16 -15 -38 2 -38 20 0 29 17 19 35 -7 12 -12 12 -21
3z"></path>
<path d="M2995 310 c-3 -5 3 -10 14 -10 12 0 21 5 21 10 0 6 -6 10 -14 10 -8
0 -18 -4 -21 -10z"></path>
<path d="M4600 301 c0 -12 6 -21 16 -21 9 0 14 7 12 17 -5 25 -28 28 -28 4z"></path>
<path d="M3930 923 c-55 -8 -68 -14 -74 -29 -12 -30 4 -53 40 -60 l34 -6 -25
-24 c-41 -38 -25 -104 25 -104 24 0 141 60 173 88 26 23 21 51 -17 86 -29 28
-97 58 -122 55 -5 -1 -20 -3 -34 -6z m160 -71 c0 -20 -141 -102 -175 -102 -20
0 -19 23 3 43 42 38 172 83 172 59z"></path>
<path d="M3930 790 c-8 -5 -11 -12 -7 -16 4 -4 13 -2 19 4 15 15 7 24 -12 12z"></path>
<path d="M4467 899 c4 -13 8 -18 11 -10 2 7 -1 18 -6 23 -8 8 -9 4 -5 -13z"></path>
<path d="M4402 880 c-8 -13 -5 -27 14 -59 26 -42 44 -53 44 -26 0 8 5 15 10
15 19 0 10 19 -24 53 -30 30 -34 32 -44 17z"></path>
<path d="M4316 742 c-2 -4 0 -29 5 -54 9 -40 7 -54 -10 -94 -12 -25 -21 -54
-21 -62 0 -9 -12 -28 -27 -44 -14 -15 -23 -31 -19 -35 4 -4 23 10 41 32 28 32
36 37 44 26 8 -12 12 -12 25 -2 18 15 21 37 7 43 -5 2 -5 27 1 61 9 50 8 65
-7 98 -18 38 -29 47 -39 31z"></path>
<path d="M4434 719 c-3 -6 -2 -15 3 -20 12 -12 -27 -153 -61 -219 -26 -50 -44
-112 -28 -95 66 68 92 109 92 142 0 20 6 41 14 47 16 13 31 80 16 71 -6 -4
-10 12 -10 39 0 44 -11 59 -26 35z"></path>
<path d="M4175 670 c-3 -5 -1 -10 4 -10 6 0 11 5 11 10 0 6 -2 10 -4 10 -3 0
-8 -4 -11 -10z"></path>
<path d="M4100 650 c-12 -8 -11 -10 7 -10 12 0 25 5 28 10 8 13 -15 13 -35 0z"></path>
<path d="M4027 619 c-20 -11 -58 -21 -83 -23 -56 -5 -64 -11 -24 -19 19 -4 34
-15 39 -30 7 -19 17 -24 46 -25 29 -1 36 2 33 16 -2 10 -16 19 -33 22 -38 7
-28 13 60 35 39 10 75 22 80 27 6 6 4 7 -5 4 -52 -16 -72 -17 -67 -2 8 20 0
20 -46 -5z"></path>
<path d="M4250 605 c-8 -23 -8 -40 -1 -52 9 -16 11 -15 20 10 13 35 14 77 2
77 -5 0 -15 -16 -21 -35z"></path>
<path d="M3970 490 c0 -5 5 -10 10 -10 6 0 10 5 10 10 0 6 -4 10 -10 10 -5 0
-10 -4 -10 -10z"></path>
<path d="M3950 439 c-25 -11 -53 -22 -63 -26 -15 -4 -16 -8 -5 -14 18 -12 58
-11 58 1 0 6 6 10 14 10 7 0 21 11 30 25 9 14 15 25 14 24 -2 0 -23 -9 -48
-20z"></path>
<path d="M4260 406 c-13 -13 -13 -33 0 -41 10 -6 50 29 50 44 0 12 -37 10 -50
-3z"></path>
<path d="M4400 401 c0 -4 -12 -21 -26 -37 -16 -16 -22 -30 -15 -32 6 -2 11
-13 11 -25 1 -18 3 -16 14 9 8 18 21 36 29 40 8 5 18 19 21 32 6 18 4 22 -13
22 -12 0 -21 -4 -21 -9z"></path>
<path d="M4075 370 c-3 -5 -1 -10 4 -10 6 0 11 5 11 10 0 6 -2 10 -4 10 -3 0
-8 -4 -11 -10z"></path>
<path d="M4065 340 c28 -12 75 -12 75 0 0 6 -21 10 -47 9 -36 0 -43 -3 -28 -9z"></path>
<path d="M3870 301 c0 -5 -3 -16 -6 -25 -4 -12 0 -16 15 -16 25 0 30 35 6 44
-8 3 -15 1 -15 -3z"></path>
<path d="M4085 301 c-3 -5 -2 -12 2 -14 13 -7 73 4 73 14 0 12 -67 12 -75 0z"></path>
<path d="M4426 291 c-4 -5 -2 -12 3 -15 5 -4 12 -2 15 3 4 5 2 12 -3 15 -5 4
-12 2 -15 -3z"></path>
<path d="M4220 280 c0 -5 4 -10 9 -10 6 0 13 5 16 10 3 6 -1 10 -9 10 -9 0
-16 -4 -16 -10z"></path>
<path d="M1653 1342 c-22 -11 -44 -30 -48 -41 -4 -12 -29 -55 -57 -97 -80
-120 -76 -190 14 -215 24 -7 48 -16 53 -20 6 -4 48 -7 95 -8 46 -1 111 -8 143
-17 52 -13 62 -13 88 0 17 8 35 13 42 11 7 -3 50 6 97 19 99 27 114 44 100
111 -5 22 -13 67 -19 99 -6 33 -22 76 -35 96 -40 61 -73 70 -263 76 -153 5
-172 3 -210 -14z m427 -87 c20 -21 25 -39 28 -93 3 -58 1 -71 -19 -96 -39 -49
-65 -54 -274 -49 -104 2 -193 7 -197 11 -13 13 18 111 42 137 16 17 61 37 135
60 206 64 249 69 285 30z m65 -155 c3 -5 1 -10 -4 -10 -6 0 -11 5 -11 10 0 6
2 10 4 10 3 0 8 -4 11 -10z"></path>
<path d="M1470 946 c0 -9 5 -16 10 -16 6 0 10 4 10 9 0 6 -4 13 -10 16 -5 3
-10 -1 -10 -9z"></path>
<path d="M1555 914 c-45 -12 -60 -69 -26 -103 20 -20 73 -30 185 -34 53 -2 60
1 79 25 l20 26 -22 35 c-12 19 -31 37 -44 41 -33 9 -169 16 -192 10z m208 -43
c28 -28 16 -37 -62 -45 -66 -6 -137 5 -159 27 -13 14 -13 18 -1 33 11 14 28
16 107 12 79 -5 97 -9 115 -27z"></path>
<path d="M1571 881 c-9 -6 -10 -11 -2 -15 14 -9 51 2 51 15 0 11 -30 12 -49 0z"></path>
<path d="M1828 796 c-7 -13 -23 -41 -34 -62 -27 -47 -59 -78 -73 -69 -6 3 -11
4 -11 1 0 -3 -8 -27 -18 -53 -16 -41 -17 -52 -6 -73 14 -26 13 -28 33 47 9 31
18 44 34 48 21 6 67 82 67 111 0 6 6 17 14 23 8 7 14 21 13 32 -2 24 -3 24
-19 -5z"></path>
<path d="M2067 755 c-5 -33 -18 -70 -28 -84 -14 -17 -19 -40 -19 -80 0 -33 4
-51 8 -43 5 7 15 11 23 8 8 -2 26 -7 41 -10 34 -8 58 -51 58 -106 0 -47 20
-54 36 -12 13 33 7 62 -8 41 -7 -11 -8 -9 -4 4 4 14 -11 39 -54 89 -33 38 -60
73 -60 77 0 4 5 22 11 38 5 17 9 55 7 84 l-3 54 -8 -60z"></path>
<path d="M2110 801 c0 -6 5 -13 10 -16 6 -3 10 1 10 9 0 9 -4 16 -10 16 -5 0
-10 -4 -10 -9z"></path>
<path d="M2006 793 c-11 -12 -6 -50 9 -63 13 -11 15 -7 15 23 0 35 -11 53 -24
40z"></path>
<path d="M1960 781 c0 -6 4 -13 10 -16 6 -3 7 1 4 9 -7 18 -14 21 -14 7z"></path>
<path d="M2107 691 c-7 -45 -5 -55 10 -67 18 -14 35 -14 34 -1 -1 4 -1 16 -1
27 0 11 -6 20 -14 20 -10 0 -16 13 -18 38 -3 35 -3 34 -11 -17z"></path>
<path d="M1687 710 c13 -13 26 -18 37 -14 26 10 13 29 -23 32 l-33 3 19 -21z"></path>
<path d="M1836 715 c-4 -11 -11 -27 -16 -37 -6 -11 -5 -18 6 -22 18 -7 27 13
22 51 -4 25 -5 26 -12 8z"></path>
<path d="M1652 648 c-19 -19 -14 -30 11 -26 12 2 22 9 22 17 0 19 -18 24 -33
9z"></path>
<path d="M1937 605 c-4 -8 -2 -17 3 -20 6 -4 10 -4 10 -1 0 2 3 11 6 20 3 9 2
16 -4 16 -5 0 -12 -7 -15 -15z"></path>
<path d="M1980 588 c0 -13 -7 -36 -15 -51 -14 -28 -10 -91 6 -82 4 3 11 27 14
53 3 26 8 59 10 75 3 15 0 27 -5 27 -6 0 -10 -10 -10 -22z"></path>
<path d="M1740 485 c0 -52 3 -95 6 -95 4 0 15 9 25 21 17 19 18 19 29 2 9 -15
10 -13 5 11 -3 16 -15 41 -26 54 -11 15 -19 40 -19 63 0 22 -4 39 -10 39 -6 0
-10 -38 -10 -95z"></path>
<path d="M1780 550 c0 -13 5 -18 15 -14 12 5 13 10 4 20 -15 19 -19 18 -19 -6z"></path>
<path d="M2070 494 c7 -16 7 -32 0 -44 -13 -24 -13 -60 -1 -60 5 0 13 -9 16
-21 6 -19 7 -20 20 -2 9 11 10 22 4 27 -5 6 -9 25 -9 43 0 35 -18 83 -31 83
-5 0 -4 -12 1 -26z"></path>
<path d="M1821 464 c0 -11 3 -14 6 -6 3 7 2 16 -1 19 -3 4 -6 -2 -5 -13z"></path>
<path d="M1985 312 c4 -15 -2 -21 -27 -29 l-33 -11 35 -1 c42 -1 113 22 118
39 3 9 -6 11 -32 8 -20 -2 -36 0 -36 4 0 4 -7 8 -16 8 -10 0 -13 -6 -9 -18z"></path>
<path d="M2123 299 c-2 -20 -1 -20 18 -4 24 22 24 25 1 25 -11 0 -18 -8 -19
-21z"></path>
<path d="M1770 296 c0 -17 23 -27 40 -16 10 6 8 11 -8 19 -27 14 -32 14 -32
-3z"></path>
<path d="M4204 1122 c-4 -12 -10 -22 -15 -22 -5 0 -9 -7 -9 -16 0 -13 6 -11
27 10 20 21 24 29 14 39 -9 9 -13 7 -17 -11z"></path>
<path d="M4336 1122 c-3 -6 -1 -14 5 -17 15 -10 25 3 12 16 -7 7 -13 7 -17 1z"></path>
<path d="M4203 1020 c2 -21 9 -26 53 -36 51 -11 52 -11 52 12 0 17 -6 24 -19
24 -10 0 -20 4 -24 10 -3 6 -15 6 -30 0 -16 -6 -25 -5 -29 3 -3 7 -4 1 -3 -13z"></path>
<path d="M480 925 c0 -14 -4 -25 -10 -25 -5 0 -10 -4 -10 -10 0 -15 16 -12 34
6 20 20 21 54 1 54 -9 0 -15 -9 -15 -25z"></path>
<path d="M6166 920 c-25 -4 -22 -7 29 -18 58 -14 85 -7 70 17 -6 11 -43 12
-99 1z"></path>
<path d="M5920 909 c0 -8 37 -19 63 -19 16 0 16 2 4 14 -13 14 -67 17 -67 5z"></path>
<path d="M5870 900 c0 -5 5 -10 10 -10 6 0 10 5 10 10 0 6 -4 10 -10 10 -5 0
-10 -4 -10 -10z"></path>
<path d="M6088 769 c-17 -18 -17 -19 1 -19 23 0 92 29 71 30 -8 0 -24 2 -35 5
-12 2 -27 -4 -37 -16z"></path>
<path d="M6164 722 c3 -5 23 -12 45 -16 22 -3 41 -11 43 -17 5 -16 39 2 36 20
-2 12 -18 17 -66 19 -37 2 -61 -1 -58 -6z"></path>
<path d="M5900 709 c0 -5 5 -7 10 -4 6 3 10 8 10 11 0 2 -4 4 -10 4 -5 0 -10
-5 -10 -11z"></path>
<path d="M6040 700 c0 -5 5 -10 10 -10 6 0 10 5 10 10 0 6 -4 10 -10 10 -5 0
-10 -4 -10 -10z"></path>
<path d="M5830 685 c-10 -11 -10 -19 -2 -27 15 -15 44 -2 40 19 -4 23 -22 27
-38 8z"></path>
<path d="M5987 683 c-11 -10 14 -33 37 -33 11 0 28 4 36 10 13 8 13 9 0 14
-36 11 -68 15 -73 9z"></path>
<path d="M5745 660 c-3 -5 -2 -10 4 -10 5 0 13 5 16 10 3 6 2 10 -4 10 -5 0
-13 -4 -16 -10z"></path>
<path d="M5880 661 c0 -11 26 -22 34 -14 12 12 5 23 -14 23 -11 0 -20 -4 -20
-9z"></path>
<path d="M5948 643 c7 -3 16 -2 19 1 4 3 -2 6 -13 5 -11 0 -14 -3 -6 -6z"></path>
<path d="M6213 633 c9 -9 19 -14 23 -11 10 10 -6 28 -24 28 -15 0 -15 -1 1
-17z"></path>
<path d="M5646 571 c-13 -15 -14 -20 -4 -23 10 -4 10 -9 -2 -24 -14 -18 -14
-18 10 -3 16 11 25 26 25 43 1 31 -6 33 -29 7z"></path>
<path d="M5700 505 c-10 -12 -10 -15 3 -15 19 0 31 16 18 24 -5 3 -14 -1 -21
-9z"></path>
<path d="M5448 402 c-25 -20 -51 -47 -56 -58 -10 -20 -7 -22 41 -27 57 -7 71
-2 45 17 -22 16 -13 26 21 26 l25 0 -23 16 c-18 13 -25 14 -31 4 -4 -7 -10 -8
-13 -3 -4 6 5 15 18 21 14 7 25 18 25 27 0 19 3 20 -52 -23z"></path>
<path d="M5315 340 c-49 -23 -81 -48 -73 -56 4 -3 15 -1 26 5 23 12 52 5 52
-13 0 -7 17 -11 44 -11 49 0 68 10 38 19 -11 4 -23 13 -26 21 -3 8 -12 15 -21
15 -20 0 -19 17 3 29 30 18 -1 11 -43 -9z"></path>
<path d="M5560 309 c0 -5 5 -7 10 -4 6 3 10 8 10 11 0 2 -4 4 -10 4 -5 0 -10
-5 -10 -11z"></path>
<path d="M5146 266 c-16 -7 -24 -16 -18 -20 12 -7 57 8 67 23 8 14 -13 13 -49
-3z"></path>
<path d="M1038 726 c-13 -10 -15 -15 -6 -24 7 -7 17 -12 23 -12 10 0 45 35 45
45 0 10 -46 4 -62 -9z"></path>
<path d="M1210 730 c0 -5 5 -10 11 -10 5 0 7 5 4 10 -3 6 -8 10 -11 10 -2 0
-4 -4 -4 -10z"></path>
<path d="M1105 710 c-8 -13 21 -24 37 -14 7 5 21 7 32 5 11 -1 16 2 12 8 -9
14 -73 14 -81 1z"></path>
<path d="M1285 680 c3 -5 13 -10 21 -10 8 0 14 5 14 10 0 6 -9 10 -21 10 -11
0 -17 -4 -14 -10z"></path>
<path d="M695 470 c-3 -5 -2 -10 4 -10 5 0 13 5 16 10 3 6 2 10 -4 10 -5 0
-13 -4 -16 -10z"></path>
<path d="M707 439 c-14 -8 -16 -14 -6 -25 15 -19 45 -18 53 2 12 31 -12 43
-47 23z"></path>
<path d="M690 390 c0 -5 5 -10 10 -10 6 0 10 5 10 10 0 6 -4 10 -10 10 -5 0
-10 -4 -10 -10z"></path>
<path d="M440 311 c0 -13 21 -19 43 -13 15 4 16 7 5 13 -17 12 -48 11 -48 0z"></path>
<path d="M6440 615 c0 -8 7 -15 15 -15 8 0 15 7 15 15 0 8 -7 15 -15 15 -8 0
-15 -7 -15 -15z"></path>
<path d="M6433 526 c3 -38 62 -88 95 -80 26 7 29 19 5 28 -41 15 -88 47 -95
63 -5 13 -7 9 -5 -11z"></path>
<path d="M647 205 c-20 -25 -24 -35 -13 -35 21 0 46 28 46 51 0 10 -1 19 -2
19 -2 0 -16 -16 -31 -35z"></path>
<path d="M304 205 c24 -18 49 -20 44 -2 -3 6 -18 13 -34 15 -28 2 -28 2 -10
-13z"></path>
<path d="M376 185 c4 -8 10 -15 14 -15 4 0 10 7 14 15 4 10 -1 15 -14 15 -13
0 -18 -5 -14 -15z"></path>
<path d="M330 157 c0 -9 -6 -18 -12 -21 -7 -3 1 -4 17 -3 33 2 42 29 13 35
-11 2 -18 -3 -18 -11z"></path>
<path d="M896 1485 c-3 -9 -6 -80 -6 -156 0 -134 1 -140 19 -134 14 4 21 0 24
-12 4 -17 5 -17 6 0 2 29 31 20 32 -10 1 -20 4 -16 10 16 10 52 6 61 -27 61
-18 0 -24 5 -24 23 0 29 10 40 24 28 14 -12 51 13 41 28 -3 6 -17 11 -31 11
-23 0 -24 3 -24 55 0 61 21 77 38 28 l9 -28 8 38 c9 46 1 57 -52 64 -32 4 -41
2 -47 -12z"></path>
<path d="M365 1480 c-56 -22 -62 -82 -20 -201 14 -42 25 -95 25 -125 0 -29 5
-56 10 -59 6 -4 10 8 10 30 0 22 4 34 10 30 6 -4 10 10 10 34 0 22 -4 43 -10
46 -12 8 -13 62 -1 69 5 4 15 4 23 1 16 -6 68 -97 68 -119 0 -9 5 -16 10 -16
6 0 10 -11 10 -25 0 -14 5 -25 10 -25 12 0 12 -2 1 38 -6 18 -6 43 -2 55 6 17
0 33 -30 74 -43 57 -47 71 -24 79 19 8 19 44 -1 72 -12 18 -65 54 -76 51 -2 0
-12 -4 -23 -9z m53 -46 c12 -8 22 -21 22 -27 0 -18 -50 -69 -63 -64 -19 6 -26
76 -10 93 18 18 23 18 51 -2z"></path>
<path d="M564 1469 c-16 -18 -19 -35 -17 -104 1 -48 8 -98 17 -120 9 -21 16
-47 17 -59 0 -21 0 -21 9 2 13 32 30 27 30 -8 0 -16 5 -30 10 -30 6 0 10 13
10 28 0 15 5 33 12 40 6 6 13 56 16 115 l4 103 -32 27 c-38 33 -51 34 -76 6z
m64 -60 c8 -15 11 -45 8 -83 -6 -65 -9 -71 -29 -63 -15 6 -31 135 -20 163 7
20 25 13 41 -17z"></path>
</g>
</svg>